<svg xmlns="http://www.w3.org/2000/svg" viewBox="0 0 21.24 21.95">
  <defs>
    <style>
      .cls-1 {
        fill: #c9c9cf;
      }
    </style>
  </defs>
  <title>Asset 4</title>
  <g id="Layer_2" data-name="Layer 2">
    <g id="Layer_1-2" data-name="Layer 1">
      <g id="miu">
        <g id="common_search_lookup_outline_stroke" data-name="common search lookup outline stroke">
          <path id="path-1" class="cls-1" d="M13.36,15.48a8.51,8.51,0,1,1,1.5-1.33l6.34,6.34a.15.15,0,0,1,0,.21L20,21.91a.15.15,0,0,1-.21,0l-6.43-6.43ZM8.5,16A7.5,7.5,0,1,0,1,8.5,7.5,7.5,0,0,0,8.5,16Z"/>
          <path id="path-1-2" data-name="path-1" class="cls-1" d="M13.36,15.48a8.51,8.51,0,1,1,1.5-1.33l6.34,6.34a.15.15,0,0,1,0,.21L20,21.91a.15.15,0,0,1-.21,0l-6.43-6.43ZM8.5,16A7.5,7.5,0,1,0,1,8.5,7.5,7.5,0,0,0,8.5,16Z"/>
        </g>
      </g>
    </g>
  </g>
</svg>
